<mxfile host="app.diagrams.net" modified="2024-03-09T09:22:20.964Z" agent="Mozilla/5.0 (X11; Linux x86_64) AppleWebKit/537.36 (KHTML, like Gecko) Chrome/121.0.0.0 Safari/537.36" version="24.0.3" etag="loqT3QARPShWGKx3OdkO" type="github">
  <diagram name="Page-1" id="qq8_IGwocJDojH7qLZjt">
    <mxGraphModel>
      <root>
        <mxCell id="0" />
        <mxCell id="1" parent="0" />
      </root>
    </mxGraphModel>
  </diagram>
</mxfile>
